<?xml version="1.0" encoding="UTF-8" standalone="no"?>
<!DOCTYPE svg PUBLIC "-//W3C//DTD SVG 1.1//EN" "http://www.w3.org/Graphics/SVG/1.1/DTD/svg11.dtd">
<svg width="100%" height="100%" viewBox="0 0 1024 1024" version="1.1" xmlns="http://www.w3.org/2000/svg" xmlns:xlink="http://www.w3.org/1999/xlink" xml:space="preserve" xmlns:serif="http://www.serif.com/" style="fill-rule:evenodd;clip-rule:evenodd;stroke-linejoin:round;stroke-miterlimit:2;">
    <g id="Background" transform="matrix(1,0,0,1,27,0)">
        <path d="M138.966,542.5C139.366,475.561 139.638,430.711 147.182,407.393C156.729,377.884 203.27,366.307 206.396,365.207C226.516,358.132 219.823,350.149 218.598,312.498C210.303,57.502 454.851,-36.013 623.217,63.965C780.294,157.239 737.639,323.106 738.549,340.498C740.232,372.647 801.986,363.994 821.102,409.669C825.677,420.6 824.895,421.105 824.864,794.501C824.861,820.471 843.909,882.56 744.228,942.045C523.031,1074.044 164,982.406 141.9,851.433C139.897,839.565 138.967,547.726 138.966,542.5ZM543.5,356.966C560.857,356.916 639.405,356.786 645.457,356.178C653.212,355.399 653.322,349.428 653.26,345.5C652.776,314.983 651.386,315.133 651.723,284.503C653.12,157.422 541.467,105.73 469.464,113.157C287.065,131.971 306.831,334.596 317.951,354.246C318.657,355.495 319.112,357.983 543.5,356.966ZM292.602,872.604C290.948,883.439 291.292,883.526 295.858,893.321C311.407,926.673 456.762,939.801 542.515,932.685C647.465,923.977 687.821,886.859 685.682,845.497C680.683,748.865 578.274,694.51 523.279,664.92C527.39,662.034 528.579,662.667 529.002,657.47C530.988,633.077 548.278,631.762 580.407,610.353C589.407,604.356 650.658,563.542 665.275,505.123C667.198,501.563 678.52,480.614 679.126,456.478C679.211,453.081 679.821,428.778 671.071,414.774C668.231,410.229 638.393,410.722 362.491,411.079C313.061,411.143 290.408,395.139 288.991,444.52C285.389,570.067 406.643,636.114 453.638,662.28C443.623,724.815 409.581,700.711 343.883,759.937C339.28,764.086 272.55,819.362 292.602,872.604Z" style="fill:#173b61"/>
        <path d="M292.602,872.604C272.55,819.362 339.28,764.086 343.883,759.937C409.581,700.711 443.623,724.815 453.638,662.28C655.694,784.535 380.888,845.027 292.602,872.604ZM482.642,740.482C480.27,734.204 479.363,732.72 473.138,735.326C463.62,739.31 479.719,755.484 482.642,740.482ZM420.449,775.095C435.025,771.912 428.926,760.571 428.111,759.986C414.502,750.224 397.188,775.558 420.449,775.095Z" style="fill:#7697A0;"/>
        <path d="M665.275,505.123C650.658,563.542 589.407,604.356 580.407,610.353C548.278,631.762 530.988,633.077 529.002,657.47C528.579,662.667 527.39,662.034 523.279,664.92C504.132,656.026 370.162,602.466 455.343,559.206C587.815,491.928 603.09,489.793 665.275,505.123ZM566.924,586.515C566.807,586.116 565.198,580.663 561.728,586.62C560.364,588.961 565.355,594.791 566.924,586.515ZM532.096,559.372C531.112,569.428 543.387,568.079 546.268,563.019C547.245,561.303 547.143,559.161 545.078,556.892C538.238,549.374 532.65,558.472 532.096,559.372Z" style="fill:#7697A0;"/>
        <path d="M613.066,809.473C615.491,799.506 631.905,799.504 638.267,811.634C653.155,840.018 616.409,833.178 613.066,809.473Z" style="fill:#7697A0;"/>
        <path d="M514.457,844.841C505.882,841.565 506.393,840.327 506.91,839.819C516.345,830.559 519.113,843.799 514.457,844.841Z" style="fill:#7697A0;"/>
        <path d="M561.4,844.124C565.753,843.604 567.742,842.213 567.465,846.498C567.049,852.945 553.224,847.495 561.4,844.124Z" style="fill:#7697A0;"/>
        <path d="M600.395,742.019C605.146,741.363 606.533,743.731 603.086,747.051C600.487,749.554 590.897,745.397 600.395,742.019Z" style="fill:#7697A0;"/>
    </g>
</svg>
